<mxfile host="app.diagrams.net" agent="Mozilla/5.0 (Windows NT 10.0; Win64; x64) AppleWebKit/537.36 (KHTML, like Gecko) Chrome/136.0.0.0 Safari/537.36" version="26.3.0">
  <diagram name="페이지-1" id="t6EU2og51nB3L_bHq7Tq">
    <mxGraphModel dx="966" dy="512" grid="1" gridSize="10" guides="1" tooltips="1" connect="1" arrows="1" fold="1" page="1" pageScale="1" pageWidth="827" pageHeight="1169" math="0" shadow="0">
      <root>
        <mxCell id="0" />
        <mxCell id="1" parent="0" />
        <mxCell id="3Ipi1YKnP4tADC3sbSw0-1" value="MOSSIF" style="rounded=0;whiteSpace=wrap;html=1;" vertex="1" parent="1">
          <mxGeometry x="160" y="40" width="80" height="20" as="geometry" />
        </mxCell>
        <mxCell id="3Ipi1YKnP4tADC3sbSw0-3" value="OSS" style="rounded=0;whiteSpace=wrap;html=1;" vertex="1" parent="1">
          <mxGeometry x="20" y="40" width="80" height="20" as="geometry" />
        </mxCell>
        <mxCell id="3Ipi1YKnP4tADC3sbSw0-4" value="MSUB" style="rounded=0;whiteSpace=wrap;html=1;" vertex="1" parent="1">
          <mxGeometry x="300" y="40" width="80" height="20" as="geometry" />
        </mxCell>
        <mxCell id="3Ipi1YKnP4tADC3sbSw0-5" value="MPROV" style="rounded=0;whiteSpace=wrap;html=1;" vertex="1" parent="1">
          <mxGeometry x="440" y="40" width="80" height="20" as="geometry" />
        </mxCell>
        <mxCell id="3Ipi1YKnP4tADC3sbSw0-6" value="Legacy PTAS" style="rounded=0;whiteSpace=wrap;html=1;" vertex="1" parent="1">
          <mxGeometry x="580" y="40" width="80" height="20" as="geometry" />
        </mxCell>
        <mxCell id="3Ipi1YKnP4tADC3sbSw0-7" value="PTAS_DBS" style="rounded=0;whiteSpace=wrap;html=1;" vertex="1" parent="1">
          <mxGeometry x="720" y="40" width="80" height="20" as="geometry" />
        </mxCell>
        <mxCell id="3Ipi1YKnP4tADC3sbSw0-8" value="" style="endArrow=none;html=1;rounded=0;entryX=0.5;entryY=1;entryDx=0;entryDy=0;" edge="1" parent="1" target="3Ipi1YKnP4tADC3sbSw0-3">
          <mxGeometry width="50" height="50" relative="1" as="geometry">
            <mxPoint x="60" y="520" as="sourcePoint" />
            <mxPoint x="440" y="360" as="targetPoint" />
          </mxGeometry>
        </mxCell>
        <mxCell id="3Ipi1YKnP4tADC3sbSw0-9" value="" style="endArrow=none;html=1;rounded=0;entryX=0.5;entryY=1;entryDx=0;entryDy=0;" edge="1" parent="1" target="3Ipi1YKnP4tADC3sbSw0-1">
          <mxGeometry width="50" height="50" relative="1" as="geometry">
            <mxPoint x="200" y="520" as="sourcePoint" />
            <mxPoint x="180" y="90" as="targetPoint" />
          </mxGeometry>
        </mxCell>
        <mxCell id="3Ipi1YKnP4tADC3sbSw0-10" value="" style="endArrow=none;html=1;rounded=0;entryX=0.5;entryY=1;entryDx=0;entryDy=0;" edge="1" parent="1" target="3Ipi1YKnP4tADC3sbSw0-4">
          <mxGeometry width="50" height="50" relative="1" as="geometry">
            <mxPoint x="340" y="520" as="sourcePoint" />
            <mxPoint x="320" y="90" as="targetPoint" />
          </mxGeometry>
        </mxCell>
        <mxCell id="3Ipi1YKnP4tADC3sbSw0-11" value="" style="endArrow=none;html=1;rounded=0;entryX=0.5;entryY=1;entryDx=0;entryDy=0;" edge="1" parent="1" target="3Ipi1YKnP4tADC3sbSw0-5">
          <mxGeometry width="50" height="50" relative="1" as="geometry">
            <mxPoint x="479.5" y="520" as="sourcePoint" />
            <mxPoint x="460" y="80" as="targetPoint" />
          </mxGeometry>
        </mxCell>
        <mxCell id="3Ipi1YKnP4tADC3sbSw0-12" value="" style="endArrow=none;html=1;rounded=0;entryX=0.5;entryY=1;entryDx=0;entryDy=0;" edge="1" parent="1" target="3Ipi1YKnP4tADC3sbSw0-6">
          <mxGeometry width="50" height="50" relative="1" as="geometry">
            <mxPoint x="619.5" y="520" as="sourcePoint" />
            <mxPoint x="610" y="70" as="targetPoint" />
          </mxGeometry>
        </mxCell>
        <mxCell id="3Ipi1YKnP4tADC3sbSw0-13" value="" style="endArrow=none;html=1;rounded=0;entryX=0.5;entryY=1;entryDx=0;entryDy=0;" edge="1" parent="1" target="3Ipi1YKnP4tADC3sbSw0-7">
          <mxGeometry width="50" height="50" relative="1" as="geometry">
            <mxPoint x="759.5" y="520" as="sourcePoint" />
            <mxPoint x="710" y="100" as="targetPoint" />
          </mxGeometry>
        </mxCell>
        <mxCell id="3Ipi1YKnP4tADC3sbSw0-14" value="" style="endArrow=classic;html=1;rounded=0;fillColor=#dae8fc;strokeColor=#6c8ebf;" edge="1" parent="1">
          <mxGeometry width="50" height="50" relative="1" as="geometry">
            <mxPoint x="60" y="120" as="sourcePoint" />
            <mxPoint x="200" y="120" as="targetPoint" />
          </mxGeometry>
        </mxCell>
        <mxCell id="3Ipi1YKnP4tADC3sbSw0-15" value="" style="endArrow=classic;html=1;rounded=0;fillColor=#dae8fc;strokeColor=#6c8ebf;" edge="1" parent="1">
          <mxGeometry width="50" height="50" relative="1" as="geometry">
            <mxPoint x="480" y="180" as="sourcePoint" />
            <mxPoint x="620" y="180" as="targetPoint" />
          </mxGeometry>
        </mxCell>
        <mxCell id="3Ipi1YKnP4tADC3sbSw0-16" value="" style="endArrow=classic;html=1;rounded=0;fillColor=#dae8fc;strokeColor=#6c8ebf;" edge="1" parent="1">
          <mxGeometry width="50" height="50" relative="1" as="geometry">
            <mxPoint x="480" y="250" as="sourcePoint" />
            <mxPoint x="760" y="250" as="targetPoint" />
          </mxGeometry>
        </mxCell>
        <mxCell id="3Ipi1YKnP4tADC3sbSw0-17" value="" style="endArrow=classic;html=1;rounded=0;fillColor=#dae8fc;strokeColor=#6c8ebf;" edge="1" parent="1">
          <mxGeometry width="50" height="50" relative="1" as="geometry">
            <mxPoint x="200" y="140" as="sourcePoint" />
            <mxPoint x="480" y="140" as="targetPoint" />
          </mxGeometry>
        </mxCell>
        <mxCell id="3Ipi1YKnP4tADC3sbSw0-18" value="" style="endArrow=classic;html=1;rounded=0;fillColor=#dae8fc;strokeColor=#6c8ebf;" edge="1" parent="1">
          <mxGeometry width="50" height="50" relative="1" as="geometry">
            <mxPoint x="620" y="210" as="sourcePoint" />
            <mxPoint x="480" y="210" as="targetPoint" />
          </mxGeometry>
        </mxCell>
        <mxCell id="3Ipi1YKnP4tADC3sbSw0-19" value="" style="endArrow=classic;html=1;rounded=0;fillColor=#dae8fc;strokeColor=#6c8ebf;" edge="1" parent="1">
          <mxGeometry width="50" height="50" relative="1" as="geometry">
            <mxPoint x="760" y="280" as="sourcePoint" />
            <mxPoint x="480" y="280" as="targetPoint" />
          </mxGeometry>
        </mxCell>
        <mxCell id="3Ipi1YKnP4tADC3sbSw0-20" value="" style="endArrow=classic;html=1;rounded=0;fillColor=#dae8fc;strokeColor=#6c8ebf;" edge="1" parent="1">
          <mxGeometry width="50" height="50" relative="1" as="geometry">
            <mxPoint x="340" y="350" as="sourcePoint" />
            <mxPoint x="480" y="350" as="targetPoint" />
          </mxGeometry>
        </mxCell>
        <mxCell id="3Ipi1YKnP4tADC3sbSw0-21" value="" style="endArrow=classic;html=1;rounded=0;fillColor=#dae8fc;strokeColor=#6c8ebf;" edge="1" parent="1">
          <mxGeometry width="50" height="50" relative="1" as="geometry">
            <mxPoint x="480" y="320" as="sourcePoint" />
            <mxPoint x="340" y="320" as="targetPoint" />
          </mxGeometry>
        </mxCell>
        <mxCell id="3Ipi1YKnP4tADC3sbSw0-22" value="" style="endArrow=classic;html=1;rounded=0;fillColor=#dae8fc;strokeColor=#6c8ebf;" edge="1" parent="1">
          <mxGeometry width="50" height="50" relative="1" as="geometry">
            <mxPoint x="480" y="400" as="sourcePoint" />
            <mxPoint x="200" y="400" as="targetPoint" />
          </mxGeometry>
        </mxCell>
        <mxCell id="3Ipi1YKnP4tADC3sbSw0-23" value="" style="endArrow=classic;html=1;rounded=0;fillColor=#dae8fc;strokeColor=#6c8ebf;" edge="1" parent="1">
          <mxGeometry width="50" height="50" relative="1" as="geometry">
            <mxPoint x="200" y="420" as="sourcePoint" />
            <mxPoint x="60" y="420" as="targetPoint" />
          </mxGeometry>
        </mxCell>
        <mxCell id="3Ipi1YKnP4tADC3sbSw0-24" value="&lt;font style=&quot;font-size: 9px;&quot;&gt;CRTE-TAS-USER AS_TYPE=PTAS USER_ID=0220990600&lt;/font&gt;" style="text;html=1;align=center;verticalAlign=middle;whiteSpace=wrap;rounded=0;" vertex="1" parent="1">
          <mxGeometry x="215" y="120" width="250" height="10" as="geometry" />
        </mxCell>
        <mxCell id="3Ipi1YKnP4tADC3sbSw0-25" value="&lt;font style=&quot;font-size: 9px;&quot;&gt;CRTE-TAS-USER AS_TYPE=PTAS USER_ID=0220990600&lt;/font&gt;" style="text;html=1;align=center;verticalAlign=middle;whiteSpace=wrap;rounded=0;" vertex="1" parent="1">
          <mxGeometry x="430" y="160" width="250" height="10" as="geometry" />
        </mxCell>
        <mxCell id="3Ipi1YKnP4tADC3sbSw0-27" value="&lt;font style=&quot;font-size: 9px;&quot;&gt;CRTE-TAS-USER OK 110410001&lt;/font&gt;" style="text;html=1;align=center;verticalAlign=middle;whiteSpace=wrap;rounded=0;" vertex="1" parent="1">
          <mxGeometry x="480" y="190" width="140" height="10" as="geometry" />
        </mxCell>
        <mxCell id="3Ipi1YKnP4tADC3sbSw0-28" value="&lt;font style=&quot;font-size: 9px;&quot;&gt;CRTE-TAS-USER AS_TYPE=PTAS USER_ID=0220990600&lt;/font&gt;" style="text;html=1;align=center;verticalAlign=middle;whiteSpace=wrap;rounded=0;" vertex="1" parent="1">
          <mxGeometry x="495" y="230" width="250" height="10" as="geometry" />
        </mxCell>
        <mxCell id="3Ipi1YKnP4tADC3sbSw0-30" value="&lt;font style=&quot;font-size: 9px;&quot;&gt;CRTE-TAS-USER OK 110410003&lt;/font&gt;" style="text;html=1;align=center;verticalAlign=middle;whiteSpace=wrap;rounded=0;" vertex="1" parent="1">
          <mxGeometry x="550" y="260" width="140" height="10" as="geometry" />
        </mxCell>
        <mxCell id="3Ipi1YKnP4tADC3sbSw0-31" value="&lt;font style=&quot;font-size: 9px;&quot;&gt;CHG-SUBS, userid : 0220990600, as_name:PTAS, as_num:03&lt;/font&gt;" style="text;html=1;align=center;verticalAlign=middle;whiteSpace=wrap;rounded=0;" vertex="1" parent="1">
          <mxGeometry x="280" y="300" width="270" height="10" as="geometry" />
        </mxCell>
        <mxCell id="3Ipi1YKnP4tADC3sbSw0-32" value="&lt;font style=&quot;font-size: 9px;&quot;&gt;CHG-SUBS OK&lt;/font&gt;" style="text;html=1;align=center;verticalAlign=middle;whiteSpace=wrap;rounded=0;" vertex="1" parent="1">
          <mxGeometry x="370" y="330" width="84" height="10" as="geometry" />
        </mxCell>
        <mxCell id="3Ipi1YKnP4tADC3sbSw0-36" value="&lt;font size=&quot;1&quot;&gt;Result:[CRTE-SUBS OK]&lt;/font&gt;&lt;div&gt;&lt;font size=&quot;1&quot;&gt;Result:[CRTE-TAS-USER OK 110410003]&lt;/font&gt;&lt;/div&gt;" style="text;html=1;align=center;verticalAlign=middle;whiteSpace=wrap;rounded=0;" vertex="1" parent="1">
          <mxGeometry x="240" y="360" width="210" height="30" as="geometry" />
        </mxCell>
        <mxCell id="3Ipi1YKnP4tADC3sbSw0-37" value="MOSSIF" style="rounded=0;whiteSpace=wrap;html=1;" vertex="1" parent="1">
          <mxGeometry x="160" y="559" width="80" height="20" as="geometry" />
        </mxCell>
        <mxCell id="3Ipi1YKnP4tADC3sbSw0-38" value="OSS" style="rounded=0;whiteSpace=wrap;html=1;" vertex="1" parent="1">
          <mxGeometry x="20" y="559" width="80" height="20" as="geometry" />
        </mxCell>
        <mxCell id="3Ipi1YKnP4tADC3sbSw0-39" value="MSUB" style="rounded=0;whiteSpace=wrap;html=1;" vertex="1" parent="1">
          <mxGeometry x="300" y="559" width="80" height="20" as="geometry" />
        </mxCell>
        <mxCell id="3Ipi1YKnP4tADC3sbSw0-40" value="MPROV" style="rounded=0;whiteSpace=wrap;html=1;" vertex="1" parent="1">
          <mxGeometry x="440" y="559" width="80" height="20" as="geometry" />
        </mxCell>
        <mxCell id="3Ipi1YKnP4tADC3sbSw0-41" value="Legacy PTAS" style="rounded=0;whiteSpace=wrap;html=1;" vertex="1" parent="1">
          <mxGeometry x="580" y="559" width="80" height="20" as="geometry" />
        </mxCell>
        <mxCell id="3Ipi1YKnP4tADC3sbSw0-42" value="PTAS_DBS" style="rounded=0;whiteSpace=wrap;html=1;" vertex="1" parent="1">
          <mxGeometry x="720" y="559" width="80" height="20" as="geometry" />
        </mxCell>
        <mxCell id="3Ipi1YKnP4tADC3sbSw0-43" value="" style="endArrow=none;html=1;rounded=0;entryX=0.5;entryY=1;entryDx=0;entryDy=0;" edge="1" parent="1" target="3Ipi1YKnP4tADC3sbSw0-38">
          <mxGeometry width="50" height="50" relative="1" as="geometry">
            <mxPoint x="60" y="1120" as="sourcePoint" />
            <mxPoint x="440" y="879" as="targetPoint" />
          </mxGeometry>
        </mxCell>
        <mxCell id="3Ipi1YKnP4tADC3sbSw0-44" value="" style="endArrow=none;html=1;rounded=0;entryX=0.5;entryY=1;entryDx=0;entryDy=0;" edge="1" parent="1" target="3Ipi1YKnP4tADC3sbSw0-37">
          <mxGeometry width="50" height="50" relative="1" as="geometry">
            <mxPoint x="200" y="1120" as="sourcePoint" />
            <mxPoint x="180" y="609" as="targetPoint" />
          </mxGeometry>
        </mxCell>
        <mxCell id="3Ipi1YKnP4tADC3sbSw0-45" value="" style="endArrow=none;html=1;rounded=0;entryX=0.5;entryY=1;entryDx=0;entryDy=0;" edge="1" parent="1" target="3Ipi1YKnP4tADC3sbSw0-39">
          <mxGeometry width="50" height="50" relative="1" as="geometry">
            <mxPoint x="340" y="1120" as="sourcePoint" />
            <mxPoint x="320" y="609" as="targetPoint" />
          </mxGeometry>
        </mxCell>
        <mxCell id="3Ipi1YKnP4tADC3sbSw0-46" value="" style="endArrow=none;html=1;rounded=0;entryX=0.5;entryY=1;entryDx=0;entryDy=0;" edge="1" parent="1" target="3Ipi1YKnP4tADC3sbSw0-40">
          <mxGeometry width="50" height="50" relative="1" as="geometry">
            <mxPoint x="480" y="1120" as="sourcePoint" />
            <mxPoint x="460" y="599" as="targetPoint" />
          </mxGeometry>
        </mxCell>
        <mxCell id="3Ipi1YKnP4tADC3sbSw0-47" value="" style="endArrow=none;html=1;rounded=0;entryX=0.5;entryY=1;entryDx=0;entryDy=0;" edge="1" parent="1" target="3Ipi1YKnP4tADC3sbSw0-41">
          <mxGeometry width="50" height="50" relative="1" as="geometry">
            <mxPoint x="620" y="1120" as="sourcePoint" />
            <mxPoint x="610" y="589" as="targetPoint" />
          </mxGeometry>
        </mxCell>
        <mxCell id="3Ipi1YKnP4tADC3sbSw0-48" value="" style="endArrow=none;html=1;rounded=0;entryX=0.5;entryY=1;entryDx=0;entryDy=0;" edge="1" parent="1" target="3Ipi1YKnP4tADC3sbSw0-42">
          <mxGeometry width="50" height="50" relative="1" as="geometry">
            <mxPoint x="760" y="1120" as="sourcePoint" />
            <mxPoint x="710" y="619" as="targetPoint" />
          </mxGeometry>
        </mxCell>
        <mxCell id="3Ipi1YKnP4tADC3sbSw0-49" value="" style="endArrow=classic;html=1;rounded=0;fillColor=#dae8fc;strokeColor=#6c8ebf;" edge="1" parent="1">
          <mxGeometry width="50" height="50" relative="1" as="geometry">
            <mxPoint x="60" y="639" as="sourcePoint" />
            <mxPoint x="200" y="639" as="targetPoint" />
          </mxGeometry>
        </mxCell>
        <mxCell id="3Ipi1YKnP4tADC3sbSw0-50" value="" style="endArrow=classic;html=1;rounded=0;fillColor=#dae8fc;strokeColor=#6c8ebf;" edge="1" parent="1">
          <mxGeometry width="50" height="50" relative="1" as="geometry">
            <mxPoint x="480" y="790" as="sourcePoint" />
            <mxPoint x="620" y="790" as="targetPoint" />
          </mxGeometry>
        </mxCell>
        <mxCell id="3Ipi1YKnP4tADC3sbSw0-51" value="" style="endArrow=classic;html=1;rounded=0;fillColor=#dae8fc;strokeColor=#6c8ebf;" edge="1" parent="1">
          <mxGeometry width="50" height="50" relative="1" as="geometry">
            <mxPoint x="480" y="860" as="sourcePoint" />
            <mxPoint x="760" y="860" as="targetPoint" />
          </mxGeometry>
        </mxCell>
        <mxCell id="3Ipi1YKnP4tADC3sbSw0-52" value="" style="endArrow=classic;html=1;rounded=0;fillColor=#dae8fc;strokeColor=#6c8ebf;" edge="1" parent="1">
          <mxGeometry width="50" height="50" relative="1" as="geometry">
            <mxPoint x="200" y="659" as="sourcePoint" />
            <mxPoint x="480" y="659" as="targetPoint" />
          </mxGeometry>
        </mxCell>
        <mxCell id="3Ipi1YKnP4tADC3sbSw0-53" value="" style="endArrow=classic;html=1;rounded=0;fillColor=#dae8fc;strokeColor=#6c8ebf;" edge="1" parent="1">
          <mxGeometry width="50" height="50" relative="1" as="geometry">
            <mxPoint x="620" y="820" as="sourcePoint" />
            <mxPoint x="480" y="820" as="targetPoint" />
          </mxGeometry>
        </mxCell>
        <mxCell id="3Ipi1YKnP4tADC3sbSw0-54" value="" style="endArrow=classic;html=1;rounded=0;fillColor=#dae8fc;strokeColor=#6c8ebf;" edge="1" parent="1">
          <mxGeometry width="50" height="50" relative="1" as="geometry">
            <mxPoint x="760" y="890" as="sourcePoint" />
            <mxPoint x="480" y="890" as="targetPoint" />
          </mxGeometry>
        </mxCell>
        <mxCell id="3Ipi1YKnP4tADC3sbSw0-55" value="" style="endArrow=classic;html=1;rounded=0;fillColor=#dae8fc;strokeColor=#6c8ebf;" edge="1" parent="1">
          <mxGeometry width="50" height="50" relative="1" as="geometry">
            <mxPoint x="340" y="960" as="sourcePoint" />
            <mxPoint x="480" y="960" as="targetPoint" />
          </mxGeometry>
        </mxCell>
        <mxCell id="3Ipi1YKnP4tADC3sbSw0-56" value="" style="endArrow=classic;html=1;rounded=0;fillColor=#dae8fc;strokeColor=#6c8ebf;" edge="1" parent="1">
          <mxGeometry width="50" height="50" relative="1" as="geometry">
            <mxPoint x="480" y="930" as="sourcePoint" />
            <mxPoint x="340" y="930" as="targetPoint" />
          </mxGeometry>
        </mxCell>
        <mxCell id="3Ipi1YKnP4tADC3sbSw0-57" value="" style="endArrow=classic;html=1;rounded=0;fillColor=#dae8fc;strokeColor=#6c8ebf;" edge="1" parent="1">
          <mxGeometry width="50" height="50" relative="1" as="geometry">
            <mxPoint x="480" y="1010" as="sourcePoint" />
            <mxPoint x="200" y="1010" as="targetPoint" />
          </mxGeometry>
        </mxCell>
        <mxCell id="3Ipi1YKnP4tADC3sbSw0-58" value="" style="endArrow=classic;html=1;rounded=0;fillColor=#dae8fc;strokeColor=#6c8ebf;" edge="1" parent="1">
          <mxGeometry width="50" height="50" relative="1" as="geometry">
            <mxPoint x="200" y="1030" as="sourcePoint" />
            <mxPoint x="60" y="1030" as="targetPoint" />
          </mxGeometry>
        </mxCell>
        <mxCell id="3Ipi1YKnP4tADC3sbSw0-59" value="&lt;font style=&quot;font-size: 9px;&quot;&gt;CRTE-TAS-USER AS_TYPE=PTAS USER_ID=0220990600&lt;/font&gt;" style="text;html=1;align=center;verticalAlign=middle;whiteSpace=wrap;rounded=0;" vertex="1" parent="1">
          <mxGeometry x="215" y="639" width="250" height="10" as="geometry" />
        </mxCell>
        <mxCell id="3Ipi1YKnP4tADC3sbSw0-60" value="&lt;font style=&quot;font-size: 9px;&quot;&gt;CRTE-TAS-USER AS_TYPE=PTAS USER_ID=0220990600&lt;/font&gt;" style="text;html=1;align=center;verticalAlign=middle;whiteSpace=wrap;rounded=0;" vertex="1" parent="1">
          <mxGeometry x="430" y="770" width="250" height="10" as="geometry" />
        </mxCell>
        <mxCell id="3Ipi1YKnP4tADC3sbSw0-61" value="&lt;font style=&quot;font-size: 9px;&quot;&gt;CRTE-TAS-USER OK 110410001&lt;/font&gt;" style="text;html=1;align=center;verticalAlign=middle;whiteSpace=wrap;rounded=0;" vertex="1" parent="1">
          <mxGeometry x="480" y="800" width="140" height="10" as="geometry" />
        </mxCell>
        <mxCell id="3Ipi1YKnP4tADC3sbSw0-62" value="&lt;font style=&quot;font-size: 9px;&quot;&gt;CRTE-TAS-USER AS_TYPE=PTAS &lt;font style=&quot;color: rgb(255, 0, 0);&quot;&gt;&lt;b&gt;AS_NUM=03&lt;/b&gt;&lt;/font&gt; USER_ID=0220990600&lt;/font&gt;" style="text;html=1;align=center;verticalAlign=middle;whiteSpace=wrap;rounded=0;" vertex="1" parent="1">
          <mxGeometry x="467.5" y="840" width="305" height="10" as="geometry" />
        </mxCell>
        <mxCell id="3Ipi1YKnP4tADC3sbSw0-63" value="&lt;font style=&quot;font-size: 9px;&quot;&gt;CRTE-TAS-USER OK 1104100&lt;font style=&quot;color: rgb(255, 0, 0);&quot;&gt;&lt;b&gt;03&lt;/b&gt;&lt;/font&gt;&lt;/font&gt;" style="text;html=1;align=center;verticalAlign=middle;whiteSpace=wrap;rounded=0;" vertex="1" parent="1">
          <mxGeometry x="550" y="870" width="140" height="10" as="geometry" />
        </mxCell>
        <mxCell id="3Ipi1YKnP4tADC3sbSw0-64" value="&lt;font style=&quot;font-size: 9px;&quot;&gt;CHG-SUBS, userid : 0220990600, as_name:PTAS, as_num:03&lt;/font&gt;" style="text;html=1;align=center;verticalAlign=middle;whiteSpace=wrap;rounded=0;" vertex="1" parent="1">
          <mxGeometry x="280" y="910" width="270" height="10" as="geometry" />
        </mxCell>
        <mxCell id="3Ipi1YKnP4tADC3sbSw0-65" value="&lt;font style=&quot;font-size: 9px;&quot;&gt;CHG-SUBS OK&lt;/font&gt;" style="text;html=1;align=center;verticalAlign=middle;whiteSpace=wrap;rounded=0;" vertex="1" parent="1">
          <mxGeometry x="370" y="940" width="84" height="10" as="geometry" />
        </mxCell>
        <mxCell id="3Ipi1YKnP4tADC3sbSw0-66" value="&lt;font size=&quot;1&quot;&gt;Result:[CRTE-SUBS OK]&lt;/font&gt;&lt;div&gt;&lt;font size=&quot;1&quot;&gt;Result:[CRTE-TAS-USER OK 110410003]&lt;/font&gt;&lt;/div&gt;" style="text;html=1;align=center;verticalAlign=middle;whiteSpace=wrap;rounded=0;" vertex="1" parent="1">
          <mxGeometry x="240" y="970" width="210" height="30" as="geometry" />
        </mxCell>
        <mxCell id="3Ipi1YKnP4tADC3sbSw0-67" value="" style="endArrow=classic;html=1;rounded=0;fillColor=#dae8fc;strokeColor=#6c8ebf;" edge="1" parent="1">
          <mxGeometry width="50" height="50" relative="1" as="geometry">
            <mxPoint x="480" y="700" as="sourcePoint" />
            <mxPoint x="340" y="700" as="targetPoint" />
          </mxGeometry>
        </mxCell>
        <mxCell id="3Ipi1YKnP4tADC3sbSw0-68" value="" style="endArrow=classic;html=1;rounded=0;fillColor=#dae8fc;strokeColor=#6c8ebf;" edge="1" parent="1">
          <mxGeometry width="50" height="50" relative="1" as="geometry">
            <mxPoint x="340" y="750" as="sourcePoint" />
            <mxPoint x="480" y="750" as="targetPoint" />
          </mxGeometry>
        </mxCell>
        <mxCell id="3Ipi1YKnP4tADC3sbSw0-69" value="&lt;font style=&quot;font-size: 9px;&quot;&gt;CHG-SUBS, userid : 0220990600, as_name:PTAS, as_num:00,&amp;nbsp;&lt;/font&gt;" style="text;html=1;align=center;verticalAlign=middle;whiteSpace=wrap;rounded=0;" vertex="1" parent="1">
          <mxGeometry x="280" y="680" width="270" height="10" as="geometry" />
        </mxCell>
        <mxCell id="3Ipi1YKnP4tADC3sbSw0-72" value="&lt;span style=&quot;font-size: 8px;&quot;&gt;CRTE-TAS-USER TargetAS:PTAS_03&lt;/span&gt;" style="text;html=1;align=center;verticalAlign=middle;whiteSpace=wrap;rounded=0;" vertex="1" parent="1">
          <mxGeometry x="330" y="730" width="160" height="10" as="geometry" />
        </mxCell>
      </root>
    </mxGraphModel>
  </diagram>
</mxfile>
